# xmcd CD database file generated by Grip 3.2.0
# 
# Track frame offsets:
#       150
#       19737
#       36727
#       56312
# 
# Disc length: 973 seconds
# 
# Revision: 1
# Processed by: cddbd v1.5.2PL0 Copyright (c) Steve Scherf et al.
# Submitted via: Grip 3.2.0
# 
DISCID=2e03cb04
DTITLE=SOPHIA - OAR
DYEAR=1900
DGENRE=Alternative
TTITLE0=OAR
TTITLE1=truth
TTITLE2=OAR instrumental
TTITLE3=truth instrumental
EXTD=
EXTT0=
EXTT1=
EXTT2=
EXTT3=
PLAYORDER=
